<svg preserveAspectRatio="none" width="100%" height="100%" overflow="visible" style="display: block;" viewBox="0 0 20 20" fill="none" xmlns="http://www.w3.org/2000/svg">
<g id="SVG">
<path id="Vector" d="M13.1484 6.11328C13.1992 6.15625 13.2539 6.19922 13.3008 6.24219C13.6641 6.5625 14.1992 6.65234 14.6055 6.38281L17.2461 4.62109C17.6914 4.32422 17.8008 3.71484 17.4453 3.31641C16.7969 2.60156 16.0508 1.97656 15.2227 1.46875C14.7578 1.18359 14.1719 1.41406 13.9688 1.92188L12.7773 4.89844C12.6016 5.33203 12.7852 5.82031 13.1484 6.11719V6.11328M12.8125 1.4375C13.0117 0.9375 12.75 0.367188 12.2266 0.246094C11.5117 0.0859375 10.7656 0 10 0C9.23438 0 8.48828 0.0859375 7.77344 0.25C7.24609 0.367188 6.98438 0.9375 7.1875 1.4375L8.37109 4.39844C8.54688 4.83984 9.02734 5.07031 9.50391 5.02344C9.66797 5.00781 9.83203 5 10 5Cnan nan 10.3359 5.00781 10.4961 5.02344C10.9688 5.07031 11.4492 4.83984 11.6289 4.39844L12.8125 1.4375V1.4375M2.55859 3.32031C2.20312 3.71875 2.3125 4.32812 2.75781 4.625L5.39844 6.38672C5.80078 6.65625 6.33984 6.56641 6.70312 6.24609C6.75391 6.20312 6.80469 6.15625 6.85938 6.11719C7.22266 5.82422 7.40234 5.33203 7.23047 4.89844L6.03125 1.92188C5.82812 1.41797 5.23828 1.1875 4.77734 1.46875C3.94922 1.97656 3.20312 2.60156 2.55859 3.32031V3.32031M14.8242 8.67578C14.8594 8.80469 14.8906 8.93359 14.9141 9.06641C15.0117 9.57422 15.4219 10 15.9375 10H19.0625C19.582 10 20.0039 9.57812 19.957 9.0625C19.8594 8 19.5938 6.98438 19.1875 6.04297C18.9727 5.53906 18.3516 5.39453 17.8945 5.69531L15.2148 7.48047C14.832 7.73438 14.6992 8.23047 14.8242 8.67188V8.67578M2.10547 5.69531C1.65234 5.39062 1.02734 5.53906 0.8125 6.04297C0.40625 6.98438 0.140625 8 0.0429688 9.0625C-0.00390625 9.57812 0.417969 10 0.9375 10H4.0625C4.58203 10 4.99219 9.57812 5.08594 9.06641C5.10938 8.93359 5.14062 8.80469 5.17578 8.67578C5.29688 8.23047 5.16797 7.73828 4.78516 7.48438L2.10547 5.69531V5.69531M4.0625 11.25H0.9375C0.417969 11.25 0 11.668 0 12.1875V14.0625C0 14.582 0.417969 15 0.9375 15H4.0625C4.58203 15 5 14.582 5 14.0625V12.1875C5 11.668 4.58203 11.25 4.0625 11.25V11.25M15.9375 11.25C15.418 11.25 15 11.668 15 12.1875V14.0625C15 14.582 15.418 15 15.9375 15H19.0625C19.582 15 20 14.582 20 14.0625V12.1875C20 11.668 19.582 11.25 19.0625 11.25H15.9375V11.25M0.9375 16.25C0.417969 16.25 0 16.668 0 17.1875V19.0625C0 19.582 0.417969 20 0.9375 20H4.0625C4.58203 20 5 19.582 5 19.0625V17.1875C5 16.668 4.58203 16.25 4.0625 16.25H0.9375V16.25M15.9375 16.25C15.418 16.25 15 16.668 15 17.1875V19.0625C15 19.582 15.418 20 15.9375 20H19.0625C19.582 20 20 19.582 20 19.0625V17.1875C20 16.668 19.582 16.25 19.0625 16.25H15.9375V16.25M10.625 7.5C10.625 7.15625 10.3438 6.875 10 6.875Cnan nan 9.375 7.15625 9.375 7.5V18.125C9.375 18.4688 9.65625 18.75 10 18.75Cnan nan 10.625 18.4688 10.625 18.125V7.5V7.5M8.125 8.75C8.125 8.40625 7.84375 8.125 7.5 8.125Cnan nan 6.875 8.40625 6.875 8.75V18.125C6.875 18.4688 7.15625 18.75 7.5 18.75Cnan nan 8.125 18.4688 8.125 18.125V8.75V8.75M13.125 8.75C13.125 8.40625 12.8438 8.125 12.5 8.125Cnan nan 11.875 8.40625 11.875 8.75V18.125C11.875 18.4688 12.1562 18.75 12.5 18.75Cnan nan 13.125 18.4688 13.125 18.125V8.75V8.75" fill="var(--fill-0, #FF5A1F)"/>
</g>
</svg>
