<svg preserveAspectRatio="none" width="100%" height="100%" overflow="visible" style="display: block;" viewBox="0 0 22.5 20" fill="none" xmlns="http://www.w3.org/2000/svg">
<g id="SVG">
<path id="Vector" d="M2.5 2.5C1.12109 2.5 0 3.62109 0 5V7.5C0 7.84375 0.289062 8.11328 0.613281 8.22656C1.34766 8.48047 1.875 9.17969 1.875 10C1.875 10.8203 1.34766 11.5195 0.613281 11.7734C0.289062 11.8867 0 12.1562 0 12.5V15C0 16.3789 1.12109 17.5 2.5 17.5H20C21.3789 17.5 22.5 16.3789 22.5 15V12.5C22.5 12.1562 22.2109 11.8867 21.8867 11.7734C21.1523 11.5195 20.625 10.8203 20.625 10C20.625 9.17969 21.1523 8.48047 21.8867 8.22656C22.2109 8.11328 22.5 7.84375 22.5 7.5V5C22.5 3.62109 21.3789 2.5 20 2.5H2.5V2.5M5 6.875V13.125C5 13.4688 5.28125 13.75 5.625 13.75H16.875C17.2188 13.75 17.5 13.4688 17.5 13.125V6.875C17.5 6.53125 17.2188 6.25 16.875 6.25H5.625C5.28125 6.25 5 6.53125 5 6.875V6.875M3.75 6.25C3.75 5.55859 4.30859 5 5 5H17.5C18.1914 5 18.75 5.55859 18.75 6.25V13.75C18.75 14.4414 18.1914 15 17.5 15H5C4.30859 15 3.75 14.4414 3.75 13.75V6.25V6.25" fill="var(--fill-0, #FF5A1F)"/>
</g>
</svg>
