<svg preserveAspectRatio="none" width="100%" height="100%" overflow="visible" style="display: block;" viewBox="0 0 16 16" fill="none" xmlns="http://www.w3.org/2000/svg">
<g id="SVG">
<path id="Vector" d="M13 12.4656C14.8281 11.1812 16 9.2125 16 7C16 3.13438 12.4187 0 8 0C3.58125 0 0 3.13438 0 7C0 9.20937 1.17188 11.1812 3 12.4656C3 12.4781 3 12.4875 3 12.5V14.5C3 15.3281 3.67188 16 4.5 16H6V14.5C6 14.225 6.225 14 6.5 14C6.775 14 7 14.225 7 14.5V16H9V14.5C9 14.225 9.225 14 9.5 14C9.775 14 10 14.225 10 14.5V16H11.5C12.3281 16 13 15.3281 13 14.5V12.5C13 12.4875 13 12.4781 13 12.4656V12.4656M3 8C3 6.89617 3.89617 6 5 6C6.10383 6 7 6.89617 7 8C7 9.10383 6.10383 10 5 10C3.89617 10 3 9.10383 3 8V8M11 6C12.1038 6 13 6.89617 13 8C13 9.10383 12.1038 10 11 10C9.89617 10 9 9.10383 9 8C9 6.89617 9.89617 6 11 6V6" fill="var(--fill-0, white)"/>
</g>
</svg>
