<svg preserveAspectRatio="none" width="100%" height="100%" overflow="visible" style="display: block;" viewBox="0 0 20.25 18" fill="none" xmlns="http://www.w3.org/2000/svg">
<g id="SVG">
<path id="Vector" d="M0 0.84375C0 0.376172 0.376172 0 0.84375 0H2.44336C3.2168 0 3.90234 0.45 4.22227 1.125H18.6715C19.5961 1.125 20.2711 2.00391 20.0285 2.89687L18.5871 8.25117C18.2883 9.35508 17.2863 10.125 16.1437 10.125H6.00117L6.19102 11.127C6.26836 11.5242 6.61641 11.8125 7.0207 11.8125H17.1562C17.6238 11.8125 18 12.1887 18 12.6562C18 13.1238 17.6238 13.5 17.1562 13.5H7.0207C5.8043 13.5 4.76016 12.6352 4.53516 11.4434L2.72109 1.91602C2.69648 1.78242 2.58047 1.6875 2.44336 1.6875H0.84375C0.376172 1.6875 0 1.31133 0 0.84375V0.84375M4.5 16.3125C4.5 15.3811 5.25614 14.625 6.1875 14.625C7.11886 14.625 7.875 15.3811 7.875 16.3125C7.875 17.2439 7.11886 18 6.1875 18C5.25614 18 4.5 17.2439 4.5 16.3125V16.3125M16.3125 14.625C17.2439 14.625 18 15.3811 18 16.3125C18 17.2439 17.2439 18 16.3125 18C15.3811 18 14.625 17.2439 14.625 16.3125C14.625 15.3811 15.3811 14.625 16.3125 14.625V14.625" fill="var(--fill-0, #9CA3AF)"/>
</g>
</svg>
