<svg preserveAspectRatio="none" width="100%" height="100%" overflow="visible" style="display: block;" viewBox="0 0 10.5 12" fill="none" xmlns="http://www.w3.org/2000/svg">
<g id="SVG">
<path id="Vector" d="M6 1.875C6 1.46016 5.66484 1.125 5.25 1.125C4.83516 1.125 4.5 1.46016 4.5 1.875V5.25H1.125C0.710156 5.25 0.375 5.58516 0.375 6C0.375 6.41484 0.710156 6.75 1.125 6.75H4.5V10.125C4.5 10.5398 4.83516 10.875 5.25 10.875C5.66484 10.875 6 10.5398 6 10.125V6.75H9.375C9.78984 6.75 10.125 6.41484 10.125 6C10.125 5.58516 9.78984 5.25 9.375 5.25H6V1.875V1.875" fill="var(--fill-0, black)"/>
</g>
</svg>
