<svg preserveAspectRatio="none" width="100%" height="100%" overflow="visible" style="display: block;" viewBox="0 0 14 16" fill="none" xmlns="http://www.w3.org/2000/svg">
<g id="SVG">
<path id="Vector" d="M8 2.5C8 1.94687 7.55313 1.5 7 1.5C6.44687 1.5 6 1.94687 6 2.5V7H1.5C0.946875 7 0.5 7.44687 0.5 8C0.5 8.55313 0.946875 9 1.5 9H6V13.5C6 14.0531 6.44687 14.5 7 14.5C7.55313 14.5 8 14.0531 8 13.5V9H12.5C13.0531 9 13.5 8.55313 13.5 8C13.5 7.44687 13.0531 7 12.5 7H8V2.5V2.5" fill="var(--fill-0, white)"/>
</g>
</svg>
