<svg preserveAspectRatio="none" width="100%" height="100%" overflow="visible" style="display: block;" viewBox="0 0 14 14" fill="none" xmlns="http://www.w3.org/2000/svg">
<g id="SVG">
<path id="Vector" d="M6.17422 12.8023L6.10586 12.7395L1.31523 8.29062C0.475781 7.51133 0 6.41758 0 5.27188V5.18164C0 3.25664 1.36719 1.60508 3.25938 1.24414C4.33672 1.03633 5.43867 1.28516 6.31641 1.90312C6.5625 2.07812 6.79219 2.28047 7 2.51289C7.11484 2.38164 7.23789 2.26133 7.36914 2.14922C7.47031 2.06172 7.57422 1.97969 7.68359 1.90312V1.90312C8.56133 1.28516 9.66328 1.03633 10.7406 1.24141C12.6328 1.60234 14 3.25664 14 5.18164V5.27188C14 6.41758 13.5242 7.51133 12.6848 8.29062L7.89414 12.7395L7.82578 12.8023C7.60156 13.0102 7.30625 13.1277 7 13.1277C6.69375 13.1277 6.39844 13.0129 6.17422 12.8023V12.8023M6.53789 3.96484C6.52695 3.95664 6.51875 3.9457 6.51055 3.93477L6.02383 3.38789L6.02109 3.38516V3.38516C5.38945 2.67695 4.43516 2.3543 3.50547 2.53203C2.23125 2.77539 1.3125 3.88555 1.3125 5.18164V5.27188C1.3125 6.05117 1.63789 6.79766 2.20937 7.32812L7 11.777L11.7906 7.32812C12.3621 6.79766 12.6875 6.05117 12.6875 5.27188V5.18164C12.6875 3.88828 11.7688 2.77539 10.4973 2.53203C9.56758 2.3543 8.61055 2.67969 7.98164 3.38516C7.98164 3.38516 7.98164 3.38516 7.97891 3.38789Cnan nan 7.97891 3.38789 7.97617 3.39062L7.48945 3.9375C7.48125 3.94844 7.47031 3.95664 7.46211 3.96758C7.33906 4.09063 7.17227 4.15898 7 4.15898Cnan nan 6.66094 4.09063 6.53789 3.96758V3.96484" fill="var(--fill-0, #D1D5DB)"/>
</g>
</svg>
