<svg preserveAspectRatio="none" width="100%" height="100%" overflow="visible" style="display: block;" viewBox="0 0 18 16" fill="none" xmlns="http://www.w3.org/2000/svg">
<g id="SVG">
<path id="Vector" d="M17.1767 3.87759C16.9804 3.13853 16.4021 2.55647 15.6678 2.35894C14.3369 2 9 2 9 2C9 2 3.66312 2 2.33216 2.35894C1.59787 2.5565 1.01956 3.13853 0.823281 3.87759C0.466656 5.21719 0.466656 8.01213 0.466656 8.01213C0.466656 8.01213 0.466656 10.8071 0.823281 12.1467C1.01956 12.8857 1.59787 13.4435 2.33216 13.6411C3.66312 14 9 14 9 14C9 14 14.3369 14 15.6678 13.6411C16.4021 13.4435 16.9804 12.8857 17.1767 12.1467C17.5333 10.8071 17.5333 8.01213 17.5333 8.01213C17.5333 8.01213 17.5333 5.21719 17.1767 3.87759V3.87759M7.25453 10.5497V5.47453L11.7151 8.01219L7.25453 10.5497V10.5497" fill="var(--fill-0, #9CA3AF)"/>
</g>
</svg>
