<svg preserveAspectRatio="none" width="100%" height="100%" overflow="visible" style="display: block;" viewBox="0 0 14.0078 16" fill="none" xmlns="http://www.w3.org/2000/svg">
<g id="SVG">
<path id="Vector" d="M7.00547 4.40625C5.01797 4.40625 3.41484 6.00937 3.41484 7.99687C3.41484 9.98437 5.01797 11.5875 7.00547 11.5875C7.00547 11.5875 10.5961 9.98437 10.5961 7.99687C10.5961 7.99687 8.99297 4.40625 7.00547 4.40625V4.40625M7.00547 10.3312C5.72109 10.3312 4.67109 9.28437 4.67109 7.99687Cnan nan 5.71797 5.6625 7.00547 5.6625Cnan nan 9.33984 6.70937 9.33984 7.99687Cnan nan 8.28984 10.3312 7.00547 10.3312V10.3312M11.5805 4.25937C11.5805 4.725 11.2055 5.09687 10.743 5.09687C10.2773 5.09687 9.90547 4.72187 9.90547 4.25937Cnan nan 10.2805 3.42188 10.743 3.42188Cnan nan 11.5805 3.79687 11.5805 4.25937V4.25937M13.9586 5.10938C13.9055 3.9875 13.6492 2.99375 12.8273 2.175C12.0086 1.35625 11.0148 1.1 9.89297 1.04375C8.73672 0.978125 5.27109 0.978125 4.11484 1.04375C2.99609 1.09688 2.00234 1.35312 1.18047 2.17188Cnan nan 0.105469 3.98437 0.0492187 5.10625C-0.0164062 6.2625 -0.0164062 9.72813 0.0492187 10.8844C0.102344 12.0063 0.358594 13 1.18047 13.8188Cnan nan 2.99297 14.8938 4.11484 14.95C5.27109 15.0156 8.73672 15.0156 9.89297 14.95C11.0148 14.8969 12.0086 14.6406 12.8273 13.8188C13.6461 13 13.9023 12.0063 13.9586 10.8844C14.0242 9.72813 14.0242 6.26563 13.9586 5.10938V5.10938M12.4648 12.125C12.2211 12.7375 11.7492 13.2094 11.1336 13.4562C10.2117 13.8219 8.02422 13.7375 7.00547 13.7375Cnan nan 3.79609 13.8187 2.87734 13.4562C2.26484 13.2125 1.79297 12.7406 1.54609 12.125C1.18047 11.2031 1.26484 9.01562 1.26484 7.99687Cnan nan 1.18359 4.7875 1.54609 3.86875C1.78984 3.25625 2.26172 2.78438 2.87734 2.5375C3.79922 2.17188 5.98672 2.25625 7.00547 2.25625Cnan nan 10.2148 2.175 11.1336 2.5375C11.7461 2.78125 12.218 3.25312 12.4648 3.86875C12.8305 4.79062 12.7461 6.97812 12.7461 7.99687Cnan nan 12.8305 11.2062 12.4648 12.125V12.125" fill="var(--fill-0, #9CA3AF)"/>
</g>
</svg>
