<svg preserveAspectRatio="none" width="100%" height="100%" overflow="visible" style="display: block;" viewBox="0 0 9 12" fill="none" xmlns="http://www.w3.org/2000/svg">
<g id="SVG">
<path id="Vector" d="M0.939844 10.9477L0.677344 11.1586C0.602344 11.2172 0.510938 11.25 0.417188 11.25C0.1875 11.25 0 11.0625 0 10.8328V4.5C0 2.01562 2.01562 0 4.5 0C6.98438 0 9 2.01562 9 4.5V10.8328C9 11.0625 8.8125 11.25 8.58281 11.25C8.48906 11.25 8.39766 11.2172 8.32266 11.1586L8.06016 10.9477C7.74609 10.6969 7.29141 10.7367 7.02656 11.0391L6.31172 11.8594C6.23438 11.9484 6.11953 12 6 12C5.88047 12 5.76797 11.9484 5.68828 11.8594L5.06484 11.1445C4.76719 10.8023 4.23516 10.8023 3.93516 11.1445L3.31172 11.8594C3.23437 11.9484 3.11953 12 3 12C2.88047 12 2.76797 11.9484 2.68828 11.8594L1.97344 11.0391C1.70859 10.7367 1.25391 10.6969 0.939844 10.9477V10.9477M3.75 4.5C3.75 4.08606 3.41394 3.75 3 3.75C2.58606 3.75 2.25 4.08606 2.25 4.5C2.25 4.91394 2.58606 5.25 3 5.25C3.41394 5.25 3.75 4.91394 3.75 4.5V4.5M6 5.25C6.41394 5.25 6.75 4.91394 6.75 4.5C6.75 4.08606 6.41394 3.75 6 3.75C5.58606 3.75 5.25 4.08606 5.25 4.5C5.25 4.91394 5.58606 5.25 6 5.25V5.25" fill="var(--fill-0, white)"/>
</g>
</svg>
