<svg preserveAspectRatio="none" width="100%" height="100%" overflow="visible" style="display: block;" viewBox="0 0 17.5 14" fill="none" xmlns="http://www.w3.org/2000/svg">
<g id="SVG">
<path id="Vector" d="M3.0625 0C2.33789 0 1.75 0.587891 1.75 1.3125V2.625H0.4375C0.196875 2.625 0 2.82188 0 3.0625C0 3.30312 0.196875 3.5 0.4375 3.5H1.75H7.4375C7.67812 3.5 7.875 3.69688 7.875 3.9375C7.875 4.17812 7.67812 4.375 7.4375 4.375H1.75H1.3125C1.07188 4.375 0.875 4.57188 0.875 4.8125C0.875 5.05312 1.07188 5.25 1.3125 5.25H1.75H6.5625C6.80312 5.25 7 5.44688 7 5.6875C7 5.92812 6.80312 6.125 6.5625 6.125H1.75H0.4375C0.196875 6.125 0 6.32188 0 6.5625C0 6.80312 0.196875 7 0.4375 7H1.75H5.6875C5.92812 7 6.125 7.19688 6.125 7.4375C6.125 7.67812 5.92812 7.875 5.6875 7.875H1.75V11.375C1.75 12.8242 2.92578 14 4.375 14C5.82422 14 7 12.8242 7 11.375H10.5C10.5 12.8242 11.6758 14 13.125 14C14.5742 14 15.75 12.8242 15.75 11.375H16.625C17.109 11.375 17.5 10.984 17.5 10.5C17.5 10.016 17.109 9.625 16.625 9.625V7.875V7V6.48867C16.625 6.02383 16.4418 5.57812 16.1137 5.25L14 3.13633C13.6719 2.8082 13.2262 2.625 12.7613 2.625H11.375V1.3125C11.375 0.587891 10.7871 0 10.0625 0H3.0625V0M14.875 6.48867V7H11.375V4.375H12.7613L14.875 6.48867V6.48867M4.375 10.0625C5.09939 10.0625 5.6875 10.6506 5.6875 11.375C5.6875 12.0994 5.09939 12.6875 4.375 12.6875C3.65061 12.6875 3.0625 12.0994 3.0625 11.375C3.0625 10.6506 3.65061 10.0625 4.375 10.0625V10.0625M11.8125 11.375C11.8125 10.6506 12.4006 10.0625 13.125 10.0625C13.8494 10.0625 14.4375 10.6506 14.4375 11.375C14.4375 12.0994 13.8494 12.6875 13.125 12.6875C12.4006 12.6875 11.8125 12.0994 11.8125 11.375V11.375" fill="var(--fill-0, #FF5A1F)"/>
</g>
</svg>
