<svg preserveAspectRatio="none" width="100%" height="100%" overflow="visible" style="display: block;" viewBox="0 0 14.0008 14.0003" fill="none" xmlns="http://www.w3.org/2000/svg">
<g id="SVG">
<path id="Vector" d="M2.14999 0.137047C1.89023 -0.0652963 1.52109 -0.0406869 1.28593 0.191735L0.192181 1.28548C-0.0402408 1.51791 -0.0648501 1.88705 0.134759 2.14955L2.32226 4.9933C2.44531 5.15463 2.63945 5.25033 2.84179 5.25033H4.32109L7.30156 8.2308C6.8996 9.02377 7.02812 10.0191 7.69257 10.6808L10.7551 13.7433C11.0969 14.0851 11.6519 14.0851 11.9937 13.7433L13.7437 11.9933C14.0855 11.6515 14.0855 11.0964 13.7437 10.7546L10.6812 7.69213C10.0195 7.03041 9.02421 6.89916 8.23124 7.30111L5.25077 4.32064V2.84408C5.25077 2.639 5.15507 2.44759 4.99374 2.32455L2.14999 0.137047V0.137047M0.544916 10.8312C0.19765 11.1785 0.000774868 11.6515 0.000774868 12.1437C0.000774868 13.1691 0.832025 14.0003 1.85742 14.0003C2.3496 14.0003 2.82265 13.8035 3.16992 13.4562L6.39101 10.2351C6.17773 9.66361 6.14492 9.04291 6.29257 8.45502L4.60546 6.76791L0.544916 10.8312V10.8312M14.0008 3.93783C14.0008 3.65072 13.9707 3.37181 13.9133 3.10384C13.8476 2.79759 13.473 2.7183 13.2516 2.93978L11.5043 4.68705C11.4223 4.76908 11.3101 4.81556 11.1953 4.81556H9.62578C9.38515 4.81556 9.18828 4.61869 9.18828 4.37806V2.8058C9.18828 2.69095 9.23476 2.57884 9.31679 2.49681L11.0641 0.749547C11.2855 0.528063 11.2062 0.153454 10.9 0.0878287C10.6293 0.0304068 10.3504 0.000328698 10.0633 0.000328698C7.88945 0.000328698 6.12577 1.764 6.12577 3.93783V3.9597L8.4582 6.29213C9.44257 6.0433 10.5309 6.3058 11.3019 7.07689L11.7312 7.50619C13.0711 6.87728 14.0008 5.51556 14.0008 3.93783V3.93783M1.53202 11.8128C1.53202 11.4506 1.82608 11.1566 2.18827 11.1566C2.55047 11.1566 2.84452 11.4506 2.84452 11.8128C2.84452 12.175 2.55047 12.4691 2.18827 12.4691C1.82608 12.4691 1.53202 12.175 1.53202 11.8128V11.8128" fill="var(--fill-0, #FF5A1F)"/>
</g>
</svg>
