<svg preserveAspectRatio="none" width="100%" height="100%" overflow="visible" style="display: block;" viewBox="0 0 12 16" fill="none" xmlns="http://www.w3.org/2000/svg">
<g id="SVG">
<path id="Vector" d="M9.2875 7.77812C9.7375 7.13437 10 6.35 10 5.5C10 3.29063 8.20937 1.5 6 1.5C3.79063 1.5 2 3.29063 2 5.5C2 6.35 2.2625 7.13437 2.7125 7.77812C2.82813 7.94375 2.96562 8.13125 3.1125 8.33125V8.33125C3.51562 8.88438 3.99688 9.54687 4.35625 10.2C4.68125 10.7937 4.84687 11.4125 4.92812 11.9969H3.40625C3.3375 11.6219 3.22187 11.2562 3.0375 10.9187C2.72812 10.3562 2.34375 9.82813 1.95938 9.3V9.3V9.3C1.79688 9.07813 1.63437 8.85625 1.47812 8.63125C0.8625 7.74688 0.5 6.66562 0.5 5.5C0.5 2.4625 2.9625 0 6 0C9.0375 0 11.5 2.4625 11.5 5.5C11.5 6.66562 11.1375 7.74687 10.5188 8.63437C10.3625 8.85937 10.2 9.08125 10.0375 9.30313V9.30313V9.30313C9.65313 9.82813 9.26875 10.3562 8.95938 10.9219C8.775 11.2594 8.65937 11.625 8.59062 12H7.075C7.15625 11.4156 7.32187 10.7937 7.64687 10.2031C8.00625 9.55 8.4875 8.8875 8.89062 8.33438V8.33438V8.33438V8.33438C9.0375 8.13438 9.17188 7.94688 9.2875 7.78125V7.77812M6 4C5.17188 4 4.5 4.67188 4.5 5.5C4.5 5.775 4.275 6 4 6Cnan nan 3.5 5.775 3.5 5.5C3.5 4.11875 4.61875 3 6 3C6.275 3 6.5 3.225 6.5 3.5Cnan nan 6.275 4 6 4V4M6 16C4.61875 16 3.5 14.8813 3.5 13.5V13H8.5V13.5C8.5 14.8813 7.38125 16 6 16V16" fill="var(--fill-0, #FF5A1F)"/>
</g>
</svg>
