<svg preserveAspectRatio="none" width="100%" height="100%" overflow="visible" style="display: block;" viewBox="0 0 14 16.0006" fill="none" xmlns="http://www.w3.org/2000/svg">
<g id="SVG">
<path id="Vector" d="M10.9188 1.39403C11.1031 0.965908 10.9656 0.465908 10.5875 0.190908C10.2094 -0.0840923 9.69375 -0.0590923 9.34063 0.247158L1.34062 7.24716C1.02812 7.52216 0.915625 7.96278 1.0625 8.35028C1.20937 8.73778 1.58437 9.00028 2 9.00028H5.48438L3.08125 14.6065C2.89687 15.0347 3.03438 15.5347 3.4125 15.8097C3.79063 16.0847 4.30625 16.0597 4.65937 15.7534L12.6594 8.75341C12.9719 8.47841 13.0844 8.03778 12.9375 7.65028C12.7906 7.26278 12.4187 7.00341 12 7.00341H8.51563L10.9188 1.39403V1.39403" fill="var(--fill-0, #FF5A1F)"/>
</g>
</svg>
