<svg preserveAspectRatio="none" width="100%" height="100%" overflow="visible" style="display: block;" viewBox="0 0 14 16" fill="none" xmlns="http://www.w3.org/2000/svg">
<g id="SVG">
<path id="Vector" d="M5 3.5C5 2.39688 5.89688 1.5 7 1.5C8.10312 1.5 9 2.39688 9 3.5V5H5V3.5V3.5M3.5 5H1.5C0.671875 5 0 5.67188 0 6.5V13C0 14.6562 1.34375 16 3 16H11C12.6562 16 14 14.6562 14 13V6.5C14 5.67188 13.3281 5 12.5 5H10.5V3.5C10.5 1.56562 8.93438 0 7 0C5.06562 0 3.5 1.56562 3.5 3.5V5V5M4.25 6.5C4.66394 6.5 5 6.83606 5 7.25C5 7.66394 4.66394 8 4.25 8C3.83606 8 3.5 7.66394 3.5 7.25C3.5 6.83606 3.83606 6.5 4.25 6.5V6.5M9 7.25C9 6.83606 9.33606 6.5 9.75 6.5C10.1639 6.5 10.5 6.83606 10.5 7.25C10.5 7.66394 10.1639 8 9.75 8C9.33606 8 9 7.66394 9 7.25V7.25" fill="var(--fill-0, #9CA3AF)"/>
</g>
</svg>
