<svg preserveAspectRatio="none" width="100%" height="100%" overflow="visible" style="display: block;" viewBox="0 0 12 16" fill="none" xmlns="http://www.w3.org/2000/svg">
<g id="SVG">
<path id="Vector" d="M3 0C2.44687 0 2 0.446875 2 1V4H4V1C4 0.446875 3.55313 0 3 0V0M9 0C8.44687 0 8 0.446875 8 1V4H10V1C10 0.446875 9.55313 0 9 0V0M1 5C0.446875 5 0 5.44687 0 6Cnan nan 0.446875 7 1 7V8C1 10.4188 2.71875 12.4375 5 12.9V15C5 15.5531 5.44687 16 6 16Cnan nan 7 15.5531 7 15V12.9C9.28125 12.4375 11 10.4188 11 8V7C11.5531 7 12 6.55313 12 6Cnan nan 11.5531 5 11 5H1V5" fill="var(--fill-0, #9CA3AF)"/>
</g>
</svg>
