<svg preserveAspectRatio="none" width="100%" height="100%" overflow="visible" style="display: block;" viewBox="0 0 20 16" fill="none" xmlns="http://www.w3.org/2000/svg">
<g id="SVG">
<path id="Vector" d="M1.84062 1.31563C1.93437 1.125 2.14063 1.01563 2.35 1.04375L10 2L17.65 1.04375C17.8594 1.01875 18.0656 1.12813 18.1594 1.31563L19.4625 3.92188C19.7437 4.48125 19.4437 5.15938 18.8437 5.33125L13.7375 6.79062C13.3031 6.91562 12.8375 6.73125 12.6062 6.34375L10 2L7.39375 6.34375C7.1625 6.73125 6.69688 6.91562 6.2625 6.79062L1.15938 5.33125C0.55625 5.15938 0.259375 4.48125 0.540625 3.92188L1.84062 1.31563V1.31563M10.0344 4L11.75 6.85625C12.2156 7.63125 13.1437 8 14.0156 7.75L18 6.6125V11.8313C18 12.5188 17.5312 13.1188 16.8625 13.2875L10.4844 14.8813C10.1656 14.9625 9.83125 14.9625 9.51562 14.8813L3.1375 13.2875C2.46875 13.1156 2 12.5156 2 11.8281V6.60937L5.9875 7.75C6.85625 8 7.7875 7.63125 8.25313 6.85625L9.96562 4H10.0344V4" fill="var(--fill-0, #9CA3AF)"/>
</g>
</svg>
