<svg preserveAspectRatio="none" width="100%" height="100%" overflow="visible" style="display: block;" viewBox="0 0 15 12" fill="none" xmlns="http://www.w3.org/2000/svg">
<g id="SVG">
<path id="Vector" d="M1.125 0C0.503906 0 0 0.503906 0 1.125V8.625C0 9.24609 0.503906 9.75 1.125 9.75H1.5C1.5 10.9922 2.50781 12 3.75 12C4.99219 12 6 10.9922 6 9.75H9C9 10.9922 10.0078 12 11.25 12C12.4922 12 13.5 10.9922 13.5 9.75H14.25C14.6648 9.75 15 9.41484 15 9C15 8.58516 14.6648 8.25 14.25 8.25V6.75V6V5.56172C14.25 5.16328 14.093 4.78125 13.8117 4.5L12 2.68828C11.7188 2.40703 11.3367 2.25 10.9383 2.25H9.75V1.125C9.75 0.503906 9.24609 0 8.625 0H1.125V0M9.75 3.75H10.9383L12.75 5.56172V6H9.75V3.75V3.75M2.625 9.75C2.625 9.1291 3.1291 8.625 3.75 8.625C4.3709 8.625 4.875 9.1291 4.875 9.75C4.875 10.3709 4.3709 10.875 3.75 10.875C3.1291 10.875 2.625 10.3709 2.625 9.75V9.75M11.25 8.625C11.8709 8.625 12.375 9.1291 12.375 9.75C12.375 10.3709 11.8709 10.875 11.25 10.875C10.6291 10.875 10.125 10.3709 10.125 9.75C10.125 9.1291 10.6291 8.625 11.25 8.625V8.625" fill="var(--fill-0, #6B7280)"/>
</g>
</svg>
