<svg preserveAspectRatio="none" width="100%" height="100%" overflow="visible" style="display: block;" viewBox="0 0 16 16" fill="none" xmlns="http://www.w3.org/2000/svg">
<g id="SVG">
<path id="Vector" d="M8 0C8.14375 0 8.2875 0.03125 8.41875 0.090625L14.3031 2.5875C14.9906 2.87813 15.5031 3.55625 15.5 4.375C15.4844 7.475 14.2094 13.1469 8.825 15.725C8.30312 15.975 7.69687 15.975 7.175 15.725C1.79062 13.1469 0.515625 7.475 0.5 4.375C0.496875 3.55625 1.00937 2.87813 1.69687 2.5875L7.58437 0.090625C7.7125 0.03125 7.85625 0 8 0V0M8 2.0875V13.9C12.3125 11.8125 13.4719 7.19062 13.5 4.41875L8 2.0875V2.0875V2.0875" fill="var(--fill-0, #FF5A1F)"/>
</g>
</svg>
