<svg preserveAspectRatio="none" width="100%" height="100%" overflow="visible" style="display: block;" viewBox="0 0 16.0009 16.0004" fill="none" xmlns="http://www.w3.org/2000/svg">
<g id="SVG">
<path id="Vector" d="M2.45714 0.156626C2.16026 -0.0746243 1.73839 -0.0464993 1.46964 0.219126L0.219636 1.46913C-0.0459894 1.73475 -0.0741144 2.15663 0.154011 2.45663L2.65401 5.70663C2.79464 5.891 3.01651 6.00038 3.24776 6.00038H4.93839L8.34464 9.40663C7.88526 10.3129 8.03214 11.4504 8.79151 12.2066L12.2915 15.7066C12.6821 16.0973 13.3165 16.0973 13.7071 15.7066L15.7071 13.7066C16.0978 13.316 16.0978 12.6816 15.7071 12.291L12.2071 8.791C11.4509 8.03475 10.3134 7.88475 9.40714 8.34413L6.00089 4.93788V3.25038C6.00089 3.016 5.89151 2.79725 5.70714 2.65663L2.45714 0.156626V0.156626M0.622761 12.3785C0.225886 12.7754 0.000885558 13.316 0.000885558 13.8785C0.000885558 15.0504 0.950886 16.0004 2.12276 16.0004C2.68526 16.0004 3.22589 15.7754 3.62276 15.3785L7.30401 11.6973C7.06026 11.0441 7.02276 10.3348 7.19151 9.66288L5.26339 7.73475L0.622761 12.3785V12.3785M16.0009 4.50038C16.0009 4.17225 15.9665 3.8535 15.9009 3.54725C15.8259 3.19725 15.3978 3.10663 15.1446 3.35975L13.1478 5.35663C13.054 5.45038 12.9259 5.5035 12.7946 5.5035H11.0009C10.7259 5.5035 10.5009 5.2785 10.5009 5.0035V3.20663C10.5009 3.07538 10.554 2.94725 10.6478 2.8535L12.6446 0.856626C12.8978 0.603501 12.8071 0.175376 12.4571 0.100376C12.1478 0.0347507 11.829 0.000375662 11.5009 0.000375662C9.01651 0.000375662 7.00089 2.016 7.00089 4.50038V4.52538L9.66651 7.191C10.7915 6.90663 12.0353 7.20663 12.9165 8.08788L13.4071 8.5785C14.9384 7.85975 16.0009 6.3035 16.0009 4.50038V4.50038M1.75089 13.5004C1.75089 13.0864 2.08695 12.7504 2.50089 12.7504C2.91482 12.7504 3.25089 13.0864 3.25089 13.5004C3.25089 13.9143 2.91482 14.2504 2.50089 14.2504C2.08695 14.2504 1.75089 13.9143 1.75089 13.5004V13.5004" fill="var(--fill-0, #FF5A1F)"/>
</g>
</svg>
