<svg preserveAspectRatio="none" width="100%" height="100%" overflow="visible" style="display: block;" viewBox="0 0 20 16" fill="none" xmlns="http://www.w3.org/2000/svg">
<g id="SVG">
<path id="Vector" d="M16.675 1.01562C18.7031 2.66562 20 5.18125 20 8C20 10.8187 18.7031 13.3375 16.675 14.9844C16.3531 15.2469 15.8812 15.1969 15.6187 14.875C15.3562 14.5531 15.4062 14.0812 15.7281 13.8187C17.4219 12.4437 18.5 10.35 18.5 8C18.5 5.65 17.4219 3.55625 15.7281 2.17813C15.4062 1.91563 15.3594 1.44375 15.6187 1.12187C15.8781 0.8 16.3531 0.753125 16.675 1.0125V1.01562M14.7844 3.34375C16.1344 4.44375 17 6.12187 17 8Cnan nan 16.1344 11.5563 14.7844 12.6563C14.4625 12.9188 13.9906 12.8688 13.7281 12.5469Cnan nan 13.5156 11.7531 13.8375 11.4906C14.8531 10.6656 15.5 9.40937 15.5 8C15.5 6.59062 14.8531 5.33437 13.8375 4.50625C13.5156 4.24375 13.4687 3.77188 13.7281 3.45Cnan nan 14.4625 3.08125 14.7844 3.34063V3.34375M12.8938 5.67187C13.5656 6.22187 14 7.05937 14 8C14 8.94062 13.5656 9.77813 12.8938 10.3281C12.5719 10.5906 12.1 10.5406 11.8375 10.2188Cnan nan 11.625 9.425 11.9469 9.1625C12.2844 8.8875 12.5 8.46875 12.5 8C12.5 7.53125 12.2844 7.1125 11.9469 6.83438C11.625 6.57188 11.5781 6.1 11.8375 5.77813Cnan nan 12.5719 5.40938 12.8938 5.66875V5.67187M9.40938 1.0875C9.76875 1.25 10 1.60625 10 2V14C10 14.3938 9.76875 14.75 9.40938 14.9125Cnan nan 8.62813 15.0094 8.33438 14.7469L4.11875 11H2C0.896875 11 0 10.1031 0 9V7C0 5.89687 0.896875 5 2 5H4.11875L8.33438 1.25312C8.62813 0.990625 9.05 0.928125 9.40938 1.0875V1.0875" fill="var(--fill-0, white)"/>
</g>
</svg>
