<svg preserveAspectRatio="none" width="100%" height="100%" overflow="visible" style="display: block;" viewBox="0 0 14 16" fill="none" xmlns="http://www.w3.org/2000/svg">
<g id="SVG">
<path id="Vector" d="M1 1C0.446875 1 0 1.44687 0 2V5C0 5.55313 0.446875 6 1 6C1.55313 6 2 5.55313 2 5V3H4C4.55313 3 5 2.55313 5 2C5 1.44687 4.55313 1 4 1H1V1M2 11C2 10.4469 1.55313 10 1 10Cnan nan 0 10.4469 0 11V14C0 14.5531 0.446875 15 1 15H4C4.55313 15 5 14.5531 5 14Cnan nan 4.55313 13 4 13H2V11V11M10 1C9.44687 1 9 1.44687 9 2Cnan nan 9.44687 3 10 3H12V5C12 5.55313 12.4469 6 13 6Cnan nan 14 5.55313 14 5V2C14 1.44687 13.5531 1 13 1H10V1M14 11C14 10.4469 13.5531 10 13 10Cnan nan 12 10.4469 12 11V13H10C9.44687 13 9 13.4469 9 14Cnan nan 9.44687 15 10 15H13C13.5531 15 14 14.5531 14 14V11V11" fill="var(--fill-0, white)"/>
</g>
</svg>
